<svg xmlns="http://www.w3.org/2000/svg" version="1.1" id="Слой_1" x="0" y="0" viewBox="0 0 100 100" xml:space="preserve"><style>.st0{fill:#907e41}</style><path class="st0" d="M9 54l-6.6-8.7L47.7 11 94 43.5l-6.2 8.9-40.1-27.8L9 54zm-3.5-8.2l3.9 5.1 38.3-29 39.6 27.5 3.6-5.3-43.2-30.3-42.2 32zm-.6 44.7l-.3-.2c-.5-.4-2.3-2-2.4-4.6 0-.2-.1-3.7 2.7-5.3.8-.4 1.6-.6 2.3-.6.1-1.1.4-2.6 1.5-4 .4-.5 2.7-3.2 6.1-2.8 2.3.3 4.4 1.9 4.8 2.4l.3.3v.4c.1 3.3.1 5.2 0 7.7v6.5l-15 .2zM7.3 82c-.4 0-.9.1-1.4.3-1.6.9-1.5 3.2-1.5 3.2.1 1.3.8 2.2 1.3 2.7l12-.2V76.6c-.6-.4-1.9-1.3-3.1-1.4-2.3-.3-3.9 1.7-4.1 1.9-1.1 1.4-1.1 3.1-1 3.7l.1 1.5-1.5-.3c-.2.1-.5 0-.8 0z"/><path transform="rotate(-1.388 10.347 89.387)" class="st0" d="M0 88.3h20.6v2.2H0z"/><path transform="translate(-.122 .116)" class="st0" d="M74.3 88h20.6v2.2H74.3z"/><path class="st0" d="M56.8 90H39.1V58.2h19.2v23.4l-.7.3c-.5.2-.9.5-1.3.8-1.1 1.1-1.3 2.6-1.3 3.1 0 1.1.4 2 .7 2.5l1.1 1.7zm-15.5-2.2h11.8c-.2-.6-.3-1.3-.3-2 0-.9.2-3 2-4.7.4-.4.8-.7 1.3-.9V60.5H41.3v27.3z"/><path class="st0" d="M57 90.3H17.7V44.5l30-22.7 31.9 22.7v27.7l-1.2-.1c-1.8-.1-3.8.6-5.2 1.8-.8.7-1.5 1.6-2 2.7l-.5 1.2-1.1-.8c-1.4-1-3.2-1-4.7-.1-1.3.8-2.1 2.3-2 3.9l.1 1.8-1.6-.6c-1.8-.8-3.8-.5-5.1.7-1.1 1.1-1.3 2.6-1.3 3.1 0 1.3.5 2.3.8 2.7l1.2 1.8zM19.9 88h33.3c-.2-.6-.4-1.4-.3-2.3 0-.9.2-3 2-4.7 1.5-1.5 3.8-2 6-1.5.3-1.8 1.4-3.4 2.9-4.3 1.8-1.1 4-1.3 6-.5.5-.9 1.2-1.8 2-2.4 1.6-1.3 3.6-2.2 5.6-2.4V45.7L47.7 24.6 19.9 45.7V88z"/><path class="st0" d="M79.6 90.3H54.9V88l24.7-.2z"/><path class="st0" d="M54.3 90.3l-.3-.5c-.5-.7-1.2-2.1-1.2-4 0-.9.2-3 2-4.7 1.5-1.5 3.8-2 6-1.5.3-1.8 1.4-3.4 2.9-4.3 1.8-1.1 4-1.3 6-.5.5-.9 1.2-1.8 2-2.4 1.2-1.1 2.8-1.8 4.4-2.2 1.9-.4 3.7-.2 5.4.5 2.6 1.1 3.9 3.3 4.6 4.6 1.2.1 2.8.5 4.3 1.5.7.5 4.4 3.3 3.7 7.5-.4 2.6-2.3 4.8-5 5.8l-.2-.1-34.6.3zm5-8.7c-1.1 0-2.2.4-2.9 1.1-1.1 1.1-1.3 2.6-1.3 3.1 0 .9.2 1.7.5 2.2l32.9-.2c1.8-.7 3.1-2.2 3.4-3.9.5-2.9-2.2-4.9-2.8-5.3-1.4-.9-2.8-1.2-3.8-1.2h-.8l-.3-.7c-.3-.9-1.3-3-3.7-4-2.7-1.2-5.7-.2-7.5 1.3-.8.7-1.5 1.6-2 2.7l-.5 1.2-1.1-.8c-1.4-1-3.2-1-4.7-.1-1.3.8-2.1 2.3-2 3.9l.1 1.8-1.4-.7c-.7-.3-1.4-.4-2.1-.4zm22.6-47.7c-4.2 0-7.5-1.6-9.1-2.6l-.5-.3v-.6c-.1-1.9-.3-8.5 4.7-14 4.1-4.5 9.3-5.5 11.5-6 3.5-.7 7.1-.5 10.6.4l.7.2.1.7c.3 2 .8 9-4 15-1.9 2.4-6.1 6.5-12.7 7-.5.2-.9.2-1.3.2zm-7.5-4.2c1.7 1 4.8 2.2 8.6 1.9 5.7-.4 9.4-4.1 11.1-6.2 3.8-4.7 3.8-10.2 3.6-12.5-2.9-.7-6-.7-8.9-.2-2.2.4-6.7 1.3-10.3 5.3-3.9 4.3-4.2 9.5-4.1 11.7z"/><path class="st0" d="M73.8 30.9l-.6-.1c-1.3-.3-5.5-1.7-8-6-2-3.6-1.7-7-1.4-8.8.6-2.9 2.1-5 3.2-6.3l.4-.4h.5c.9.1 5.8.6 8.7 4.9 2 2.8 2.5 6.4 1.4 10.2-.8 3-2.6 5-3.9 6.1l-.3.4zm-5.4-19.3c-.9 1-1.9 2.6-2.3 4.8-.2 1.2-.6 4.2 1.1 7.2 1.7 3.1 4.6 4.3 6 4.8 1-1 2.2-2.5 2.8-4.7.9-3.1.5-6-1.1-8.3-2-2.9-5.2-3.6-6.5-3.8z"/></svg>