<svg xmlns="http://www.w3.org/2000/svg" version="1.1" id="Слой_1" x="0" y="0" viewBox="0 0 100 100" xml:space="preserve"><style>.st0{fill:#907e41}</style><path class="st0" d="M15.6 19.8c-3.1 0-5.5-2.5-5.5-5.5s2.5-5.5 5.5-5.5 5.5 2.5 5.5 5.5-2.5 5.5-5.5 5.5zm0-8c-1.4 0-2.5 1.1-2.5 2.5s1.1 2.5 2.5 2.5 2.5-1.1 2.5-2.5-1.1-2.5-2.5-2.5z"/><path class="st0" d="M15.6 41.7l-1.3-2c-.5-.9-1.2-1.9-2-3.1-5-7.8-9.6-15-10.4-18.2-.2-.7-.6-2.5-.6-4.1C1.3 6.4 7.7 0 15.6 0s14.3 6.4 14.3 14.3c0 1.1-.2 2.5-.6 4.2-.7 2.9-5 9.7-10.1 17.6-.9 1.3-1.7 2.6-2.3 3.6l-1.3 2zm0-38.6c-6.2 0-11.2 5-11.2 11.2 0 1.3.4 2.8.5 3.4.7 2.9 6.5 11.9 10 17.2.2.4.5.7.7 1.1.3-.5.7-1.1 1.1-1.6 3.6-5.6 9-14 9.7-16.7.4-1.7.5-2.8.5-3.4-.1-6.2-5.1-11.2-11.3-11.2zM79.3 70c-5.3 0-9.6-4.3-9.6-9.6s4.3-9.6 9.6-9.6 9.6 4.3 9.6 9.6-4.3 9.6-9.6 9.6zm0-16c-3.6 0-6.4 2.9-6.4 6.4 0 3.6 2.9 6.4 6.4 6.4 3.6 0 6.4-2.9 6.4-6.4 0-3.5-2.9-6.4-6.4-6.4z"/><path class="st0" d="M79.3 100l-1.4-2.2c-.8-1.2-1.7-2.7-2.8-4.5C68.1 82 61.7 71.6 60.6 67c-.3-1.1-.8-3.5-.8-5.9C59.9 50 68.6 41 79.3 41s19.4 9 19.4 20.2c0 1.6-.3 3.6-.8 5.9-1 4.2-6.9 14-14 25.4-1.2 2-2.3 3.8-3.2 5.3l-1.4 2.2zm0-55.8c-8.9 0-16.2 7.6-16.2 17 0 2 .5 4.2.8 5.1 1 4.4 9.2 17.5 14.1 25.3.5.8 1 1.6 1.4 2.3.6-1 1.2-2 1.9-3.1 5-8.1 12.6-20.4 13.6-24.5.6-2.6.8-4.2.8-5.1-.2-9.4-7.5-17-16.4-17zm-50.6-3.3l-4.5-.1c-1 0-1.7-.8-1.7-1.8 0-.9.8-1.7 1.7-1.7l4.5.1c1 0 1.7.8 1.7 1.8s-.8 1.7-1.7 1.7zM57.3 96c-.3 0-.7-.1-1-.3-.2-.1-.3-.2-.5-.3-1-.7-3.6-2.7-5.9-6.2-.5-.8-.3-1.9.5-2.4s1.9-.3 2.4.5c2 3 4.2 4.7 5 5.3.1.1.3.2.4.3.8.5 1 1.6.5 2.4-.3.5-.8.7-1.4.7zm-9.2-13.8c-.8 0-1.5-.5-1.7-1.3-.2-.8-.4-1.7-.6-2.5-.6-2.9-.7-4.8-.7-6.2 0-1 .7-1.7 1.7-1.8 1 0 1.7.7 1.8 1.7 0 1.4.1 3 .6 5.6.2.8.3 1.6.5 2.3.2.9-.3 1.9-1.3 2.1 0 .1-.1.1-.3.1zm-1.3-16.8c-.9 0-1.7-.7-1.7-1.6 0-.6-.1-1.2-.1-1.8-.3-2.9-.5-4.7-.8-6.5-.2-.9.4-1.8 1.4-2 .9-.2 1.8.4 2 1.4.4 2 .6 4.3.8 6.8.1.6.1 1.2.2 1.8.1 1-.7 1.8-1.6 1.9h-.2zm-4.1-16.3c-.6 0-1.1-.3-1.5-.8-1.1-1.8-2.5-3.3-4.1-4.5-.4-.3-.9-.6-1.3-.9-.8-.5-1.1-1.6-.6-2.4.5-.8 1.6-1.1 2.4-.6.5.3 1.1.7 1.6 1.1 2 1.5 3.6 3.3 5 5.4.5.8.3 1.9-.6 2.4-.3.2-.6.3-.9.3zm27.1 49.4l-4.5-.1c-1 0-1.7-.8-1.7-1.8s.8-1.7 1.8-1.7l4.5.1c1 0 1.7.8 1.7 1.8-.1 1-.9 1.7-1.8 1.7z"/></svg>