<svg xmlns="http://www.w3.org/2000/svg" version="1.1" id="Слой_1" x="0" y="0" viewBox="0 0 100 100" xml:space="preserve"><style>.st0{fill:#907e41}</style><path class="st0" d="M7.4 95.4l-2.7-.7 4.9-19.8L2.2 50l2.7-.8 7.6 25.6z"/><path transform="rotate(-14.035 30.023 84.937)" class="st0" d="M28.6 74.5h2.8v20.8h-2.8z"/><path class="st0" d="M11.1 74h21.5v2.8H11.1zm81.7 21.4l-5.2-20.6 7.7-25.6 2.7.8-7.5 24.9 5 19.8z"/><path transform="rotate(-75.965 70.143 84.93)" class="st0" d="M59.7 83.5h20.8v2.8H59.7z"/><path class="st0" d="M67.6 74h21.5v2.8H67.6zm-19-42.7h2.8v58.1h-2.8z"/><path class="st0" d="M31.7 65.2h36.6V68H31.7zm66.9-35H1.4c-.5 0-1-.3-1.3-.8-.2-.5-.2-1.1.2-1.5 1.8-2.1 6.7-7.6 14.6-12.7 4.8-3.1 9.9-5.6 15.1-7.3 6.4-2.1 13.1-3.2 20-3.2s13.5 1.1 20 3.2c5.2 1.7 10.3 4.2 15.1 7.3 7.9 5.1 12.8 10.6 14.6 12.7.4.4.4 1 .2 1.5-.3.5-.8.8-1.3.8zm-94-2.8h90.8C89.5 21.2 73.7 7.5 50 7.5S10.5 21.2 4.6 27.4zM62 94.9H38c-.5 0-.9-.3-1-.7-.2-.4 0-.9.3-1.2 1.7-1.4 6.2-4.7 12.7-4.7 6.5 0 11.1 3.3 12.7 4.7.4.3.5.8.3 1.2-.1.4-.5.7-1 .7zm-20.4-2.2h16.9c-2-1.1-4.9-2.2-8.4-2.2s-6.5 1-8.5 2.2z"/></svg>