<svg xmlns="http://www.w3.org/2000/svg" version="1.1" id="Слой_1" x="0" y="0" viewBox="0 0 100 100" xml:space="preserve"><style>.st0{fill:#907e41}</style><path class="st0" d="M21 100H5.7c-.7 0-1.3-.6-1.3-1.3V1.3C4.4.6 5 0 5.7 0H21c.7 0 1.3.6 1.3 1.3v97.3c.1.8-.5 1.4-1.3 1.4zM7.1 97.3h12.6V2.7H7.1v94.6z"/><path class="st0" d="M78 86.1H21c-.7 0-1.3-.6-1.3-1.3V27.3c0-.5.3-1 .8-1.2.5-.2 1.1-.1 1.5.3l57 57.4c.4.4.5 1 .3 1.5s-.7.8-1.3.8zm-55.6-2.7h52.4L22.4 30.6v52.8z"/><path class="st0" d="M51.1 75.9H31.3c-.7 0-1.3-.6-1.3-1.3V54.7c0-.5.3-1 .8-1.2.5-.2 1.1-.1 1.5.3L52 73.7c.4.4.5 1 .3 1.5-.2.4-.7.7-1.2.7zm-18.4-2.6h15.2L32.7 58v15.3zm8.7-21.7l3.9-14 11 12.1-14.9 1.9zm5.2-8.6l-1.5 5.4 5.8-.7-4.3-4.7zM5.3 5.6h5.3v2.7H5.3zm0 6.2h5.3v2.7H5.3zm0 6.3h5.3v2.7H5.3zm0 6.2h5.3V27H5.3zm0 6.3h5.3v2.7H5.3zm0 6.2h5.3v2.7H5.3zm0 6.3h5.3v2.7H5.3zm0 6.3h5.3v2.7H5.3zm0 6.2h5.3v2.7H5.3zm0 6.3h5.3v2.7H5.3zm0 12.5h5.3v2.7H5.3zm0 6.2h5.3v2.7H5.3zm0 6.3h5.3v2.7H5.3zm0-18.8h5.3v2.7H5.3zm0 25h5.3v2.7H5.3z"/><path transform="rotate(-43.614 40.603 20.038)" class="st0" d="M21.6 18.7h38.1v2.7H21.6z"/><path transform="rotate(-43.975 65.8 20.459)" class="st0" d="M38.3 19.1h55.1v2.7H38.3z"/><path transform="rotate(-40.978 27.595 38.18)" class="st0" d="M24.4 36.8h6.4v2.7h-6.4z"/><path transform="rotate(-40.978 31.765 42.351)" class="st0" d="M28.6 41H35v2.7h-6.4z"/><path transform="rotate(-40.978 35.935 46.521)" class="st0" d="M32.8 45.2h6.4v2.7h-6.4z"/><path transform="rotate(-40.978 40.918 51.18)" class="st0" d="M37.7 49.8h6.4v2.7h-6.4z"/><path transform="rotate(-40.978 45.135 56.173)" class="st0" d="M42 54.8h6.4v2.7H42z"/><path transform="rotate(-40.978 49.837 60.193)" class="st0" d="M46.7 58.9h6.4v2.7h-6.4z"/><path transform="rotate(-40.978 53.841 65.08)" class="st0" d="M50.7 63.7h6.4v2.7h-6.4z"/><path transform="rotate(-40.978 57.6 68.59)" class="st0" d="M54.4 67.3h6.4V70h-6.4z"/><path transform="rotate(-40.978 62.192 73.412)" class="st0" d="M59 72.1h6.4v2.7H59z"/><path transform="rotate(-40.978 66.723 77.649)" class="st0" d="M63.5 76.3h6.4V79h-6.4z"/><path transform="rotate(-43.975 74.588 29.608)" class="st0" d="M47.1 28.3h55.1V31H47.1z"/><path transform="rotate(-44.413 66.554 27.757)" class="st0" d="M42.7 26.4h47.7v2.7H42.7z"/><path transform="rotate(-46.013 89.615 6.461)" class="st0" d="M88.3-.6H91v14.1h-2.7z"/><path transform="rotate(-45.899 84.984 11.59)" class="st0" d="M83.6 5.2h2.7V18h-2.7z"/><path transform="rotate(-45.461 79.045 85.482)" class="st0" d="M77.7 66.4h2.7v38.1h-2.7z"/></svg>