<svg version="1.1" id="Слой_1" xmlns="http://www.w3.org/2000/svg" x="0" y="0" viewBox="0 0 280 280" xml:space="preserve"><style>.st0{fill:#907e43}</style><path class="st0" d="M178 190.9H37.9c-6 0-10-2.4-12.4-4l-.8-.4c-10.8-6.4-14.4-16.8-14.8-18-1.2-3.6-3.6-13.2.8-23.2.8-2 3.2-7.6 9.6-12.4 8-6 17.2-5.6 20.8-5.2l4.8.4-.4-4.8c-.4-4.4 0-8.4 1.2-12.8.8-2.8 3.6-12.4 12.8-20.4 6.8-6 14-8.4 18.8-9.6 2.8-.8 10.8-2 20.4.4 4.8 1.2 13.6 4.4 21.6 12.4 3.2 3.2 6 7.2 8 11.2l2.8 5.6 3.6-4.8c2-2.8 4.4-5.2 7.2-7.6 3.2-2.8 9.2-8 18.4-9.6 3.2-.4 11.2-2 20 2.4 7.6 4 11.2 10.4 13.2 13.6 2.4 4.4 4 9.2 4.8 14.4l7.6-.8c-.8-6.4-2.8-12-5.6-17.6-2-4-6.8-12-16.4-16.8-10.8-5.6-21.2-3.6-24.8-3.2-11.2 2-18.4 8-22 11.2-1.6 1.2-3.2 2.8-4.8 4.4-2-2.8-4-5.6-6.4-8-9.2-9.6-19.6-13.2-25.2-14.8-11.2-2.8-20.8-1.2-24-.8-5.6 1.2-14.4 4.4-22.4 11.2-10.4 9.2-14 20-15.2 24.4-.8 3.6-1.2 7.2-1.6 10.8-5.6 0-14 1.2-21.6 6.8-5.2 4-9.6 9.2-12.4 15.6-5.6 12.8-2.4 24.4-.8 28.8.8 3.6 5.6 16 18 23.2l.8.4c2.4 1.6 8.4 5.2 16.4 5.2H178v-7.6z"/><path class="st0" d="M239.6 122.5c0-2-.4-5.6 2-9.6 2.4-4.4 6-6.8 8.4-7.6 2-.8 6.4-2.4 11.6-.8 7.6 2.4 10 9.2 10.4 10 1.6 4.4.8 8.4.4 10-.8 4.4-3.2 8-6.4 10.8-2 1.6-4.4 2.8-7.2 3.6h-62v7.6h62.8c4-.8 7.6-2.8 10.8-5.2 4.8-3.6 8-9.2 9.2-15.2.4-2 1.6-7.6-.8-14.4-.8-2-4.8-11.6-15.6-14.8-7.2-2.4-14-.4-17.2 1.2-2.8 1.2-8.4 4.4-12 11.2-2.8 5.6-3.2 10.8-2.8 14l8.4-.8zm-29.2 60c-.4 3.6 0 8.8 2.8 14 3.6 6.4 9.2 9.6 12 11.2 2 .8 5.6 2 10 2 2 0 4.4-.4 7.2-1.2 10.8-3.2 14.8-12.8 15.6-14.8 2.4-6.4 1.2-12.4.8-14.4-1.2-6-4.4-11.2-9.2-15.2-3.2-2.4-6.8-4.4-10.8-5.2H111.9v7.6h125.7c2.8.8 5.2 2 7.2 3.6 3.2 2.8 5.6 6.4 6.4 10.8.4 1.6 1.2 5.6-.4 10-.4.8-3.2 7.6-10.4 10-4.8 1.6-9.6.4-11.6-.8-2-.8-6-3.2-8.4-7.6-2-4-2-7.6-2-9.6l-8-.4zM98.7 105.7c5.6 2.8 8 8 8.8 10.8l7.2-2.8c-1.6-4-4.8-10.8-12.8-14.8-10.4-5.2-23.2-3.2-32 5.2-9.6 9.2-8.4 22-8 24.4l7.6-.8c-.4-2-1.2-11.2 6-18 6.4-6 16-7.6 23.2-4z"/></svg>