<svg xmlns="http://www.w3.org/2000/svg" viewBox="0 0 280 280"><path d="M202.8 254h-7.2v-18.4h-32V254h-7.2v-18.4h-32V254h-7.2v-18.4h-32V254H78v-18.4H46V280h188v-44.4h-32V254h.8zm7.6-10.8h16.4v29.2H54v-29.2h16.4v18.4h22.8v-18.4h16.4v18.4h22.8v-18.4h16.4v18.4h22.8v-18.4H188v18.4h22.8v-18.4h-.4zm-156-93.6c2.8 21.2 11.6 40 26.4 53.6 10.4 9.6 22.8 16.8 36.8 20.4l10.4 2.8-6.4-8.8c-8-11.2-18-29.2-20.8-53.2-.8-8-3.2-28.8 6.4-51.6C110 106 116 92 130.8 81.2c2-1.2 4-2.8 6-4-.8 4.4-1.6 8.8-2 12.8-2 16-3.2 28.4 2.4 41.2 2.8 6 6.8 11.6 12 16.4l6.4 6 .4-8.4c0-6.8 2-13.2 5.2-19.2 0 .8 0 1.6.4 2.4 1.2 7.2 3.2 11.6 6 16.8 1.2 2 2 4 3.2 6.4 3.6 7.6 8.4 18 7.6 30.8-.4 8.8-4 16.4-6.4 21.6-2.4 5.2-5.6 10.4-9.2 15.2l-8.8 11.6 13.6-6c10.4-4.4 25.2-13.6 36.8-30.4 3.2-4.8 11.2-18 14.4-36.8 1.6-10 2.4-25.6-3.2-43.2-1.6-4.8-3.6-9.2-28.4-46.8L186 66c-11.2-16.8-16.4-24.4-18.8-36.8-2.4-6.4-2.8-14-2-21.2l.8-8-6.8 4.4c-7.6 4.8-14.8 9.6-22 14.8-14.8 10.4-26.4 18.4-37.6 29.2-9.6 8.8-23.6 22.4-34 44-5.6 11.6-14.4 31.2-11.2 57.2zm18-54c9.6-20.4 22.8-32.8 32.4-42 10.8-10.4 21.6-18 36.8-28.4 5.2-3.6 10.4-7.2 15.6-10.4 0 5.6.4 11.2 1.6 16.4 2.8 13.6 8.4 22.4 20 39.6l1.2 1.6c24 36.4 26 40.8 27.2 44.8 5.6 16.8 4.4 32 3.2 39.6-2.8 17.2-10 29.2-13.2 33.6-6.4 9.2-14 16-20.8 20.4.8-1.2 1.2-2.4 1.6-3.6 2.8-6 6.4-14 7.2-24.4.8-14.4-4.4-26.4-8.4-34.4-1.2-2.4-2.4-4.8-3.2-6.8-2.4-4.8-4.4-8.4-5.2-14.4-.4-4-.4-8 0-12L170 104l-8 8c-3.2 3.2-6 6.4-8 10.4-2.4 4.4-4.4 9.2-5.2 14-2-2.4-3.6-5.2-4.8-8-4.8-10.4-3.6-20.4-1.6-37.2.8-6.8 2-13.6 3.6-20l2-7.6-7.6 3.2c-5.2 2.4-10 5.2-14.4 8.4-16 12-22.8 27.2-26 34.8-10.8 24.8-8 47.2-7.2 55.6 2.4 19.6 9.2 35.6 16 47.6-8.4-4-16.4-9.2-22.8-15.2-13.2-12.4-21.6-29.6-24-49.2-3.2-24 5.6-42.4 10.4-53.2z" fill="#907e43"/></svg>