<svg xmlns="http://www.w3.org/2000/svg" viewBox="0 0 280 280"><path d="M251.2 73.4h-46c-4 0-8.8 0-13.2 1.2-22.8 5.2-37.6 19.2-44 41.6-1.6 5.2-2 10.8-1.6 16.8l.4 2.8H186l.4-3.6v-1.6c.4-10.8 7.2-17.2 17.6-17.2h52.8V73.8l-3.6-.4h-2zm-.8 33.6H204c-14 0-23.2 8.8-24 22.4h-27.6c0-4 .4-8 1.6-11.6 5.6-20.4 18.8-32.8 39.2-37.2 4-.8 8.4-.8 12-.8H250V107h.4zM61.2 93.4h39.2l.4-3.2V89c.8-26.8-18.4-51.6-44.4-56.4-6.4-1.2-12.8-1.2-19.2-1.2h-14V71H44c9.6 0 16 6.8 16.8 16l.4 6.4zM44.4 64.6H29.6V37.4h7.6c6.4 0 12.4 0 18 1.2 22.4 4 39.2 25.2 39.2 48.4H66.8v-.4c-.4-12.8-10-21.6-22.4-22zm56.4 124v-63.2c0-1.2 0-3.2-1.6-4.4-1.2-1.2-2.8-1.2-4-1.2-6.8 0-33.6.4-33.6.4s-.4 34-.4 43.2c.4 16 6.4 29.6 18.4 40.8 5.2 4.8 10.4 8 16.8 10.4l4 1.6.4-27.6zm-6 0v18c-4-2-7.6-4.4-10.8-7.6-10.8-10-16.4-22-16.4-36.4v-36.8h27.2v62.8zm48.8-25.2l-5.6 7.2c-4 5.2-8.8 7.6-14.4 7.6s-10-2.4-14-7.6l-5.6-6.8v60h39.6v-60.4zm-6.4 54H110v-37.2c4 2.8 8.4 4.4 13.6 4.4 5.2 0 9.6-1.6 13.6-4.4v37.2zm48.8-55.2h-39.2v60l4.4-1.6c25.6-10.4 36.8-35.6 35.2-55.2l-.4-3.2zm-32.8 50.4v-44H180c.4 15.6-8.4 34.4-26.8 44zm-52.8 17.6v11.2c.4 2.4 2.4 4 4 5.2.4.4.8.4 1.6.8.4 2 1.6 5.2 6 5.2h23.2c3.2 0 5.6-2 6-5.2 2.4-.8 5.2-2 5.2-6v-14h-46v2.8zm40.4 11.2h-5.2s-.4 4-.4 4.4H112V241s-4.8-.1-5.2-.1V233h34s.2 5.8 0 8.4zM183.2 139c-11.2-.4-22.4 0-33.6 0-2.8 0-6 2.8-6 5.6-.4 2.8-.4 5.6-.4 8.4v6.4h46.4V153c0-2.8 0-5.6-.4-8.4 0-2.8-3.2-5.6-6-5.6zm0 14h-34v-7.2l.4-.4c10.8-.4 22-.4 32.8 0l.4.4c.8 2 .8 4.4.4 7.2zM104 116.6v-14.8c-.4-2.4-3.6-5.6-6-5.6-11.2 0-22.4-.4-33.6 0-2.4 0-6 2.4-6 5.2-.4 2.8 0 15.2 0 15.2H104zM64 103s.4-.4 0 0c11.2-.4 22.4-.4 33.2-.4l.4.4c.4 2.4 0 4.8 0 7.2H64c0-2.4-.4-4.8 0-7.2zM14.4 27.4H0v46.4h14c3.6 0 6-2.8 6.4-6.4V34.2c0-3.6-2.8-6.4-6-6.8zm-.4 40H6.4V33.8H14v33.6zm259.6 2.8c-2.8 0-5.6 0-8.4.4s-5.6 3.6-5.6 6.4c-.4 11.2-.4 22.4 0 33.2 0 2.4 2.8 6 5.6 6.4 1.6 0 3.6.4 5.2.4h9.6V70.2h-6.4zm0 40h-7.2l-.4-.4V77.4l.4-.4c2.4-.4 4.8 0 7.2 0v33.2z" fill="#907e43"/></svg>