<svg version="1.1" id="Слой_1" xmlns="http://www.w3.org/2000/svg" x="0" y="0" viewBox="0 0 280 280" xml:space="preserve"><style>.st0{fill:#907e43}</style><path class="st0" d="M58 199.4c-5.6-7.6-12-14.4-17.6-20l-2.8-2.8-5.2 5.6c-1.6 1.6-3.2 3.6-4.8 5.2-5.2 5.6-11.2 12.4-16 20.8-2.8 4.8-5.2 9.6-5.2 15.6 0 14.4 11.2 27.2 25.2 30 2 .4 4 .4 6 .4 10.4 0 20.4-5.2 26-14.4 6-9.2 6.8-18.4 2.4-27.2-2-4-4.4-8.4-8-13.2zm-.8 36.4c-4.8 8-14.4 12-24 10.4-10.4-2-18.8-12-18.8-22.4 0-4 1.6-7.6 4-11.6 4.4-7.6 10-14 14.8-19.2 1.6-1.6 2.8-3.2 4.4-4.8 4.8 4.8 9.6 10 14 16 3.2 4.4 5.6 8.4 7.6 12.4 3.2 5.6 2.4 12-2 19.2zm206.4-27.2h-.8V83c0-7.6-5.6-13.6-13.2-14.4V41c-.8-8.4-8-15.2-16.8-15.2H90.4c-3.2 0-6 2.8-6 6v10.8c0 3.2 2.8 6 6 6h70.8c.4 0 10-.4 14.4 6 .8 1.6 1.6 3.2 1.6 4.8v10c-5.2 2.4-8.8 7.6-8.8 13.6v.8H48c-26.4 0-48 21.2-48 47.6v18c0 3.6 2.8 6.4 6.4 6.4h12.8v3.6c0 2.8 2.4 5.2 5.2 5.2h25.2c2.8 0 5.2-2.4 5.2-5.2v-3.6H68c3.6 0 6.4-2.8 6.4-6.4V139h46c6.8.4 16.8 2 27.2 8.4 10.4 6.4 16.8 14.8 20.4 20.8v40.4h-1.2c-9.2 0-16.4 7.2-16.4 16.4v16.8H280V225c0-9.2-7.2-16.4-16.4-16.4zm-216.8-52h-20v-.4h20v.4zm20-8.8H7.6V139h58.8v8.8h.4zm94.4-107.2H92V33h140.8c4.8 0 8.4 3.6 8.8 8v26.8h-56.8v-9.2c-.4-3.2-1.2-6-2.8-8.4-6.4-10-19.6-9.6-20.8-9.6zM151.6 141c-11.6-7.2-23.2-9.2-31.2-9.6H7.6c.4-22 18.4-40 40.4-40h120.4V155c-4-4.8-9.6-10-16.8-14zm24.4 40.8V82.6c0-3.6 3.2-6.8 6.8-6.8H248c3.6 0 6.8 3.2 6.8 6.8v125.6H176v-26.4zm96.4 52h-114v-9.2c0-4.8 4-8.4 8.4-8.4h96.8c4.8 0 8.4 4 8.4 8.4v9.2h.4z"/><path class="st0" d="M242 85h7.6v117.2H242z"/></svg>