<svg version="1.1" id="Слой_1" xmlns="http://www.w3.org/2000/svg" x="0" y="0" viewBox="0 0 280 280" xml:space="preserve"><style>.st0{fill:#907e43}</style><path class="st0" d="M136.2 22.4H67v212.4h146.8V22.4h-77.6zm-61.6 8h61.6v94.8H74.6V30.4zm61.6 196.8H85.8l28.8-34.8-6.4-4.8-28.8 35.2 5.6 4.8H74.6v-94.8h61.6v94.4zm69.6 0h-61.6v-94.4h61.6v94.4zM185 30.4L157.4 64l6 4.8 28.8-35.2-4-3.2h17.6v94.8h-61.6V30.4H185z"/><path class="st0" d="M237 0H43.4v248h-18v32h229.2v-32H237V0zM51 7.6h178.4V246H51V7.6zm196 264.8H33.4V256h214v16.4h-.4z"/><path transform="rotate(-50.669 177.799 66.217)" class="st0" d="M155 62.4h45.6V70H155z"/><path transform="rotate(-50.669 93.567 189.895)" class="st0" d="M70.8 186.1h45.6v7.6H70.8z"/></svg>