<svg version="1.1" id="Слой_1" xmlns="http://www.w3.org/2000/svg" x="0" y="0" viewBox="0 0 280 280" xml:space="preserve"><style>.st0{fill:#907e43}</style><path class="st0" d="M16 266.8h264v-95.6h-54L67.6 13.2 0 81.6l88.8 89.2H16v96zm7.6-88h83.6L10.8 81.6l56.8-57.2L222 178l1.2 1.2h49.2v80.4H23.6v-80.8z"/><path class="st0" d="M254.8 216H270v6h-15.2zm-25.2 0h15.2v6h-15.2zm-25.6 0h15.2v6H204zm-25.6 0h15.2v6h-15.2zm-25.2 0h15.2v6h-15.2zm-25.6 0h15.2v6h-15.2zm-25.2 0h15.2v6h-15.2zm-25.6 0H92v6H76.8zm-25.6 0h15.2v6H51.2zM26 216h15.2v6H26z"/><path transform="rotate(-44.324 156.6 168.886)" class="st0" d="M153.6 161.3h6v15.2h-6z"/><path transform="rotate(-44.324 139.096 150.674)" class="st0" d="M136.1 143.1h6v15.2h-6z"/><path transform="rotate(-44.324 120.984 132.481)" class="st0" d="M118 124.9h6v15.2h-6z"/><path transform="rotate(-44.327 103.527 114.418)" class="st0" d="M100.5 106.8h6V122h-6z"/><path transform="rotate(-44.324 85.406 96.215)" class="st0" d="M82.4 88.6h6v15.2h-6z"/><path transform="rotate(-44.324 67.905 78.005)" class="st0" d="M64.9 70.4h6v15.2h-6z"/><path transform="rotate(-44.324 50.088 59.496)" class="st0" d="M47.1 51.9h6v15.2h-6z"/></svg>