<svg version="1.1" id="Слой_1" xmlns="http://www.w3.org/2000/svg" x="0" y="0" viewBox="0 0 280 280" xml:space="preserve"><style>.st0{fill:#907e43}</style><path class="st0" d="M211.1 65.2c0-36-31.6-65.2-70.8-65.2S69.5 29.2 69.5 65.2v44.4H42.7V280h193.6V109.6h-25.2V65.2zm-133.6 0c0-31.6 28.4-57.6 63.2-57.6 34.4 0 62.8 26 62.8 57.6v44.4h-15.6V65.2c0-24.4-21.2-44-47.6-44s-47.6 19.6-47.6 44v44.4H77.1l.4-44.4zm102.8 44.4h-79.6V65.2c0-20 18-36.4 40-36.4s40 16.4 40 36.4v44.4h-.4zm48 162.8H50.7v-12.8h178v12.8h-.4zm0-20.8H50.7V138h178v113.6h-.4zm0-122.4H50.7v-12h178v12h-.4z"/><path class="st0" d="M125.9 199.6v13.2c0 7.6 6.4 13.6 14 13.6 7.2 0 13.6-5.6 14-12.8v-13.2c4-3.6 6.4-8.8 6.4-14.4 0-11.2-8.8-20-20-20s-20 8.8-20 20c0 4.8 2 10 5.6 13.6zm14.4-26c6.8 0 12 5.6 12 12 0 3.6-1.6 7.2-4.8 9.6l-1.6 1.2v16.4c-.4 3.2-3.2 5.6-6.4 5.6-3.6 0-6.4-2.8-6.4-6V196l-1.2-1.2c-2.4-2.4-4-5.6-4-9.2.4-6.4 5.6-12 12.4-12z"/></svg>