<svg version="1.1" id="Слой_1" xmlns="http://www.w3.org/2000/svg" x="0" y="0" viewBox="0 0 280 280" xml:space="preserve"><style>.st0{fill:#907e43}</style><path class="st0" d="M47.9 43.2L40.7 58 9.5 123.6l72.8 34.8L70.7 182H39.9c-.8-4.4-3.2-8.4-6.4-11.6-4.4-4.4-10.4-6.8-16.4-6.8H-.5l.4 93.6h17.6c12.8 0 23.6-10.4 23.6-23.6v-8h54.8l4.4-3.2 22-45.2 65.6 31.6 8.8-18.4 30 14.4 33.2-67.2c7.6-4.8 14-11.6 18-20l1.6-3.6L95.9 26.4c-18-8.8-39.6-1.2-48 16.8zM32.7 233.6c0 8.8-7.2 15.6-15.6 16h-10v-78h10c4 0 8 1.6 11.2 4.4 2.8 2.8 4.8 6.8 4.8 11.2V226l-.4 7.6zm61.2-17.2l-2 1.6H40.3v-28h35.2l13.6-27.6 25.6 12-20.8 42zm90-18L19.9 120l27.2-57.6 164 78.4-27.2 57.6zm38.8-4l-22.8-10.8 18.8-39.2c6.8 1.6 16 2.4 26.4-.4 1.2-.4 2.4-.8 3.2-1.2l-25.6 51.6zm35.2-65.2l-3.2 2c-2 1.2-3.6 2-5.6 3.2h-.4c-.4.4-1.2.4-1.6.8-10.4 3.6-21.6 3.2-31.6-1.6L50.7 54.8l4-8c6.8-14 24-20 38-13.2l176 84.4c-2.8 4-6.4 8-10.8 11.2z"/><path class="st0" d="M53.5 89.6c-6.8 0-12.4 5.6-12.4 12.4s5.6 12.4 12.4 12.4c3.2 0 6.4-1.2 8.8-3.6 2.4-2.4 3.6-5.2 3.6-8.8 0-7.2-5.6-12.4-12.4-12.4zm3.2 15.2c-.8.8-2 1.2-3.2 1.2-2.4 0-4.4-2-4.4-4.4s2-4.4 4.4-4.4c2.4 0 4.4 2 4.4 4.4 0 1.2-.4 2.4-1.2 3.2zm27.2-1.6s-.4 0 0 0c-3.2 0-6.4 1.2-8.8 3.6s-3.6 5.2-3.6 8.8c0 6.8 5.6 12.4 12.4 12.4 6.8 0 12.4-5.6 12.4-12.4-.4-6.8-6-12.4-12.4-12.4zm0 16.8c-2.4 0-4.4-2-4.4-4.4 0-1.2.4-2.4 1.2-3.2.8-.8 2-1.2 3.2-1.2 2.4 0 4.4 2 4.4 4.4 0 2.4-2 4.4-4.4 4.4zm92 28.4l-27.2-13.2c-4.8-2.4-10.8-.4-13.2 4.8-1.2 2.4-1.2 5.2-.4 7.6.8 2.4 2.8 4.4 5.2 5.6l27.2 13.2c1.2.8 2.8.8 4.4.8 3.6 0 7.2-2 9.2-5.6 2-4.8-.4-10.8-5.2-13.2zm-2.4 10c-.4 1.2-2 1.6-3.2 1.2l-27.2-13.2-1.2-1.2c-.4-.4 0-1.2 0-1.6.4-.8 1.2-1.2 2-1.2.4 0 .8 0 .8.4l27.2 13.2c1.6 0 2.4 1.6 1.6 2.4z"/></svg>