<svg version="1.1" id="Слой_1" xmlns="http://www.w3.org/2000/svg" x="0" y="0" viewBox="0 0 280 280" xml:space="preserve"><style>.st0{fill:#907e43}</style><path class="st0" d="M217.9 92.9h16.4c4 0 7.6-.8 10.4-2.4 3.2-1.6 5.2-4 6.8-7.2s2.4-6.8 2.4-10.8-.8-7.6-2.4-10.8c-1.6-3.2-4-5.6-6.8-7.2-3.2-1.6-6.4-2.4-10.4-2.4h-25.6v66.4h9.2V92.9zm16.4-31.6c2 0 3.6.4 5.2 1.6 1.6 1.2 2.8 2.4 3.6 4s1.2 3.6 1.2 6-.4 4.4-1.2 6-2 3.2-3.6 4-3.2 1.6-5.2 1.6h-16.8V61.7h16.8v-.4zm-162.4 100c0 8.8 2.4 16 7.2 22 3.6 4.8 8.4 7.2 14 7.2h87.2c4.4 0 8-1.2 10.8-4 8.8-7.6 10-17.2 10.4-25.2v-4H71.9v4zm121.6 4c-.8 7.2-3.2 11.6-7.2 15.6-1.6 1.2-3.6 2-6 2H93.1c-3.2 0-6-1.2-8-4-2.8-3.6-4.8-8-5.2-13.2h113.6v-.4zm-132-10.4c-7.6-6.8-16.4-12.4-26.4-16-6.8-2.4-13.6-1.2-18.8 4-5.6 5.6-7.2 12.4-4.8 20 2.4 7.2 7.6 11.6 14.8 12.4 2.8.4 6 .4 8.8.4h3.6s7.6 0 9.6-.4c3.2-.4 7.6-.8 12-2s6-4 6.8-5.6c.8-2.8.4-6-1.6-8.8-1.2-1.2-2.8-2.4-4-4zm-3.2 11.6c-3.6 1.2-7.6 1.6-10.8 2-2 0-11.2.4-11.2.4-.4 0-6.4-.4-8.8-.4-4-.4-6.8-2.8-8.4-7.2-1.6-4.8-.8-8.4 2.8-12 2-2 4.4-3.2 6.8-3.2 1.2 0 2.4.4 4 .8 8.8 3.2 16.8 8 23.6 14.4 1.2.8 2 2 2.8 3.2s.8 1.6.8 1.6c-.4-.4-.8 0-1.6.4zm152.8 6.8c1.2.4 2.4 1.2 4 1.6 4.8.8 9.6 1.2 14.4 1.6h8c.4 0 6.4-.4 9.6-.8 7.2-.8 12.4-5.6 14.8-12.4 2.4-7.2.8-14.4-4.8-19.6-5.2-5.2-12-6.8-18.8-4.4-8 2.8-15.6 7.2-22.4 12.8-3.2 2.4-6 5.6-8.4 9.2-2 2.8-2 5.2-1.6 6.8.8.8 2 3.2 5.2 5.2zm9.6-15.6c6-4.8 12.8-8.8 20.4-11.2 4.4-1.6 7.6-.8 10.8 2.4s4.4 7.2 2.8 12c-1.6 4.4-4 6.8-8.4 7.2-2.4.4-5.2.4-8 .4h-7.6c-4.8-.4-9.6-1.2-14.4-1.6-.4 0-1.2-.4-1.6-.8-.4-.4-.8-.4-.8-.4-.4 0 4.4-6 6.8-8z"/><path class="st0" d="M173.9 66.5H91.1c-9.6 0-18.4 3.6-25.6 10.4-3.6 3.6-7.6 7.2-11.2 10.8l-5.6 5.6c-.4.4-1.2.8-1.6 1.6-1.6-3.6-4.8-6-8.8-6.8-7.6-1.2-14.8-.4-21.6 3.2-3.2 2-5.6 4.8-6.4 8-.8 3.2 0 6.8 2 10 1.6 2.4 3.6 4.4 5.6 5.6 1.6 1.2 3.2 2 4.8 2.8l-7.2 7.6c-10 10.4-15.2 22.4-15.6 36-.4 10-.4 19.6-.4 29.2v6.8c0 6.8 1.6 12.4 5.2 16.8 2.8 3.6 4 7.6 3.2 13.2v2.8c.4 10.8 6.8 18 17.6 18.8 2.8 0 5.6.4 8.8.4 3.6 0 7.6 0 11.6-.4 8.4-.4 15.2-7.2 16-15.6v-1.6h148.8c.8 10 7.6 16.4 17.2 17.2 6.4.4 13.2.4 20.8 0 8-.4 14.8-7.2 15.6-15.2.4-2.8.4-5.6.4-8.4v-5.2c0-.4 0-.8.4-.8 5.6-6.8 8.4-14.8 8.4-23.2v-32.4c0-9.6-2.8-18.8-7.6-26.8h13.6V30.5H173.9v36zm0 49.6H55.5l2-2c7.2-7.2 14.4-14 21.6-21.2 3.2-3.2 7.2-4.8 11.6-4.8h82.8v28h.4zm92 46.8v32.8c0 6.8-2 12.8-6.4 18.4-1.2 1.6-2 3.6-2 5.6v5.6c0 2.8 0 5.2-.4 7.6-.4 4.4-4 8-8.4 8.4-7.6.4-14 .4-20 0s-9.6-4-10-10.4v-6.8H55.1l-.4 5.2c0 1.2 0 2-.4 3.2-.4 4.8-4.4 8.4-8.8 8.8-7.6.4-13.6.4-19.6 0-6.4-.4-10-4.4-10-11.2v-1.6c.8-7.6-.8-13.6-5.2-18.8-2.4-2.8-3.2-6.8-3.2-12v-6.8c0-9.6-.4-19.2 0-28.8.4-11.6 4.8-22 13.6-30.8l14-14.8-4.4-2.4c-.8-.4-1.6-.8-2.8-1.6-2-1.2-4.4-2.4-6-3.6-1.2-.8-2.4-2-3.2-3.6-.8-.8-1.2-2.4-.8-4 .4-1.6 1.6-2.4 2.4-2.8 3.6-2 7.2-2.8 11.6-2.8 1.6 0 3.2 0 4.8.4s2.8.8 3.6 4c0 .8.4 1.2.4 2l1.2 8.8 7.6-7.2c1.6-1.6 2.8-2.8 4.4-4l5.6-5.6c3.6-3.6 7.2-7.2 11.2-10.8 5.6-5.6 12.8-8 20.4-8.4h82.8v6.4H91.1c-6.4 0-12.4 2.4-17.2 6.8-7.2 6.8-14.4 14-22 21.2l-6.8 6.4c-.4.4-.8.8-1.2 1.6l-5.6 6.8h135.6v12h82.8c6 8 9.2 16.8 9.2 26.8zm-84-124.8h90v90h-90v-90z"/></svg>