<svg xmlns="http://www.w3.org/2000/svg" viewBox="0 0 280 280"><path d="M243.4 34.4L269 280l8-.8L247.8 3.6V0h-216L3 279.2l8 .8L36.2 34.4H65v122.8c-6.8 2.8-12 9.2-12 17.2v20h-5.6v8H53v5.2c-5.6 2-9.6 7.6-9.6 13.6 0 8 6.8 14.8 14.8 14.8h57.6c8 0 14.8-6.8 14.8-14.8 0-6.4-4-11.6-9.6-13.6v-5.2h5.6v-8H121v-20c0-6.8-4-12.8-9.6-16v-124h59.2v122.8c-6.8 2.8-12 9.2-12 17.2v20H153v8h5.6v5.2c-5.6 2-9.6 7.6-9.6 13.6 0 8 6.8 14.8 14.8 14.8h57.6c8 0 14.8-6.8 14.8-14.8 0-6.4-4-11.6-9.6-13.6v-5.2h5.6v-8h-5.6v-20c0-6.8-4-12.8-9.6-16v-124h26.4zM115.8 227.6H58.2c-3.6 0-6.8-3.2-6.8-6.8s3.2-6.8 6.8-6.8h57.6c3.6 0 6.8 3.2 6.8 6.8s-2.8 6.8-6.8 6.8zM113 206H61v-32c0-6 4.8-10.8 10.8-10.8h30.8c6 0 10.8 4.8 10.8 10.8v32h-.4zm-9.6-50H72.6V34.4H103V156h.4zM141 26.4h-29.6v-8h-8v8H73v-8h-8v8H37L39 8h201.6l2 18.4H217v-8h-8v8h-30.4v-8h-8v8H141zm80.4 201.2h-57.6c-3.6 0-6.8-3.2-6.8-6.8s3.2-6.8 6.8-6.8h57.6c3.6 0 6.8 3.2 6.8 6.8s-3.2 6.8-6.8 6.8zm-2.8-21.6h-52v-32c0-6 4.8-10.8 10.8-10.8h30.4c6 0 10.8 4.8 10.8 10.8v32zm-9.6-50h-30.8V34.4h30.4V156h.4z" fill="#907e43"/></svg>