<svg xmlns="http://www.w3.org/2000/svg" viewBox="0 0 280 280"><path d="M150.6 149.5v-45.2H0v143.6h221.7v-53.1h-38v-45.2l-33.1-.1zm25.6 7.6v37.6h-63.6v-37.6h63.6zm-135 0h63.6v37.6H41.2v-37.6zM79.1 112h63.5v37.6H79.1V112zm-71.5 0h63.5v37.6H7.6V112zm0 45.1h25.6v37.6H7.6v-37.6zm63.9 82.7H7.6v-37.6h63.6v37.6h.3zm71.5 0H79.1v-37.6h63.6v37.6h.3zm71.2.1h-63.5v-37.6h63.6l-.1 37.6zm22.7-152.3c-2-2-5.2-2-7.2 0l-1.2 1.2-2.4-2.4c5.6-12 3.6-26.8-6-36.4-3.2-3.2-7.6-5.6-7.6-5.6-3.2-2-7.2-3.2-10.8-4l-32.4-8c-3.6-.8-7.2 0-9.6 2.4-2.4 2.4-3.6 6-2.4 9.6l9.6 36.4 2 6.4s4 5.2 6.4 7.6c6.4 6.4 14.4 9.2 22.4 9.2 4.8 0 9.6-1.2 14-3.2l2.4 2.4-1.2 1.2c-.8.8-1.6 2.4-1.6 3.6s.4 2.8 1.6 3.6l38 38c3.2 3.2 7.6 4.8 12 4.8s8.8-1.6 12-4.8c6.8-6.8 6.8-17.6 0-24l-38-38zm-56.3 2c-2.8-2.8-5.2-6.4-6-10.4l-1.2-3.6-8.8-32.8c-.4-1.2.4-2 .4-2 .4-.4 1.2-.8 2.4-.4l32.4 8c3.2.8 6 1.6 8.8 3.2 0 0 3.6 2 6 4.4 6.8 6.8 8.4 16.4 5.6 24.8l-.4-.4c-4-4-10.8-4-14.4 0-4 4-4 10.4 0 14.4l.4.4c-8.8 2.8-18.4 1.2-25.2-5.6zm32 1.6l-2-2c-.8-.8-.8-2.8 0-3.6.4-.4 1.2-.8 1.6-.8.4 0 1.2.4 1.6.8l2 2c-.4.8-.8 1.2-1.6 2 0 .4-.8 1.2-1.6 1.6zm5.6 5.6c.8-.4 1.2-1.2 2-1.6.8-.8 1.2-1.2 1.6-2l1.2 1.2-3.6 3.6-1.2-1.2zm51.1 47.5c-3.6 3.6-9.6 3.6-13.2 0l-36-36 13.2-13.2 36 36c3.6 3.7 3.6 9.6 0 13.2z" fill="#907e43"/></svg>